<svg id="Layer_1" data-name="Layer 1" xmlns="http://www.w3.org/2000/svg" viewBox="0 0 151.99 241.44"><polygon points="33.17 16.33 12 28.67 3.68 33.52 3.68 0 33.17 16.33" style="fill:#60439a"/><polygon points="149.56 135.48 94.14 167.8 94.14 104.8 149.56 135.48" style="fill:#6050a1"/><polygon points="79.2 14.42 79.2 71.88 31.85 45.67 28.64 43.89 31.85 42.02 79.2 14.42" style="fill:#2f2561"/><polygon points="151.99 68.23 151.99 131.32 96.48 100.6 151.99 68.23" style="fill:#8259a5"/><polygon points="87.78 173.09 79.2 178.09 31.85 205.7 31.85 141.45 79.2 168.25 81.03 169.29 87.78 173.09" style="fill:#60439a"/><polygon points="12 53.59 12 67.23 3.68 62.62 0 60.59 3.68 58.44 12 53.59" style="fill:#8259a5"/><polygon points="90.1 102.73 90.1 169.15 89.74 169.36 78.2 162.97 31.32 137.01 78.2 109.67 90.1 102.73" style="fill:#706ab0"/><polygon points="149.36 64.46 94.14 96.66 94.14 33.89 149.36 64.46" style="fill:#704fa0"/><polygon points="91.1 175.73 91.1 241.44 33.29 209.43 79.2 182.67 91.1 175.73" style="fill:#2f2561"/></svg>