<svg id="Layer_1" data-name="Layer 1" xmlns="http://www.w3.org/2000/svg" viewBox="0 0 290.59 179.06"><path d="M295.33,427.34c0,9.9-2.93,17.68-8.45,23.39-7.48,7.94-19.63,12-33.43,12a48,48,0,0,1-11.36-1v43.84l-14.62-8.25V432.89l14.62,8.28v9.07a47.88,47.88,0,0,0,11.67,1.13c17.06,0,27.44-8.27,27.44-23.38,0-14.45-10.23-21.43-25.8-21.43-6.19,0-10.89.48-13.31,1.13V419l-14.62-8.28V395.35c7.07.18,16.24,0,27.6,0,13.95,0,24.18,3.27,30.68,9.1C291.76,409.64,295.33,417.6,295.33,427.34Z" transform="translate(-227.47 -358.85)" fill="#24b5ff"/><path d="M327.14,373.46c.17,4.87-3.41,8.77-9.09,8.77a8.5,8.5,0,0,1-8.6-8.77,8.7,8.7,0,0,1,8.93-8.92C323.73,364.54,327.14,368.43,327.14,373.46Zm-15.9,100.65V395.54h14.28v78.57Z" transform="translate(-227.47 -358.85)" fill="#24b5ff"/><path d="M389.33,440.84l-7.68,11.08c2,3.34-.33.16,1.91,3.47l11.51,17.71h16.24ZM356.6,394.52H340.69l21,30.2L369.15,414c-1.8-3,.71.51-1.35-2.57Z" transform="translate(-227.47 -358.85)" fill="#24b5ff"/><path d="M452.62,427.19h19.17c.15-9.1-3.75-23.2-19.81-23.2-13,0-19.48,10.84-21.43,20.24a25.34,25.34,0,0,0-.49,3h5.83l18.43,10.23H429.91c.3,19.32,12.66,27.29,26.93,27.29,10.22,0,16.42-1.8,21.76-4.06L481,470.87c-5,2.26-13.64,4.86-26.13,4.86-24.21,0-38.65-15.91-38.65-39.6s13.95-42.37,36.85-42.37c25.64,0,32.48,22.56,32.48,37a54.32,54.32,0,0,1-.49,6.66H471.05Z" transform="translate(-227.47 -358.85)" fill="#24b5ff"/><path d="M503.28,358.85h14.28V474.11H503.28Z" transform="translate(-227.47 -358.85)" fill="#24b5ff"/><polygon points="180.59 36.68 108.95 146.73 91.89 146.73 163.53 36.68 180.59 36.68" fill="#24b5ff"/><path d="M229.27,533.32v-9.18h-1.49v-1.46h1.49v-.52a5.07,5.07,0,0,1,1.24-3.73,3.68,3.68,0,0,1,2.58-1,4.37,4.37,0,0,1,1.66.31l-.26,1.49a3,3,0,0,0-1.24-.24c-1.64,0-2.07,1.45-2.07,3.09v.58h2.57v1.46h-2.56v9.18Z" transform="translate(-227.47 -358.85)" fill="#24b5ff"/><path d="M244.85,527.89c0,3.94-2.73,5.67-5.29,5.67-2.89,0-5.12-2.1-5.12-5.48,0-3.56,2.34-5.65,5.29-5.65S244.85,524.65,244.85,527.89Zm-8.44.13c0,2.33,1.34,4.09,3.23,4.09s3.24-1.73,3.24-4.15c0-1.8-.91-4.08-3.21-4.08S236.41,526,236.41,528Z" transform="translate(-227.47 -358.85)" fill="#24b5ff"/><path d="M247.29,526c0-1.26,0-2.33-.09-3.31h1.7l.07,2.08H249a3.23,3.23,0,0,1,3-2.33,2.15,2.15,0,0,1,.53.06v1.82a3.06,3.06,0,0,0-.65-.06,2.7,2.7,0,0,0-2.59,2.48,5.11,5.11,0,0,0-.08.9v5.69h-1.93Z" transform="translate(-227.47 -358.85)" fill="#24b5ff"/><path d="M259.21,518.49h8v1.59h-6.06V525h5.6v1.59h-5.6v6.71h-1.93Z" transform="translate(-227.47 -358.85)" fill="#24b5ff"/><path d="M271.46,519.67a1.2,1.2,0,1,1-2.4,0,1.2,1.2,0,1,1,2.4,0Zm-2.16,13.65V522.68h1.92v10.64Z" transform="translate(-227.47 -358.85)" fill="#24b5ff"/><path d="M274.44,517.69h1.93v15.63h-1.93Z" transform="translate(-227.47 -358.85)" fill="#24b5ff"/><path d="M282,519.61v3.07h2.78v1.46H282v5.74c0,1.32.38,2.07,1.46,2.07a3.77,3.77,0,0,0,1.12-.14l.09,1.47a4.87,4.87,0,0,1-1.73.27,2.73,2.73,0,0,1-2.09-.82,4.11,4.11,0,0,1-.75-2.78v-5.81h-1.65v-1.46h1.65v-2.57Z" transform="translate(-227.47 -358.85)" fill="#24b5ff"/><path d="M287.87,528.35a3.4,3.4,0,0,0,3.64,3.69,7.3,7.3,0,0,0,2.95-.54l.34,1.37a8.58,8.58,0,0,1-3.55.68c-3.27,0-5.24-2.18-5.24-5.37s1.9-5.75,5-5.75c3.47,0,4.38,3.05,4.38,5a5.07,5.07,0,0,1-.07.91Zm5.66-1.4c0-1.22-.5-3.13-2.67-3.13-2,0-2.81,1.79-3,3.13Z" transform="translate(-227.47 -358.85)" fill="#24b5ff"/><path d="M297.8,526c0-1.26,0-2.33-.08-3.31h1.69l.08,2.08h.06a3.24,3.24,0,0,1,3-2.33,2.29,2.29,0,0,1,.54.06v1.82a3.23,3.23,0,0,0-.66-.06,2.7,2.7,0,0,0-2.59,2.48,5.11,5.11,0,0,0-.08.9v5.69H297.8Z" transform="translate(-227.47 -358.85)" fill="#24b5ff"/><path d="M307.25,519.67a1.2,1.2,0,1,1-2.4,0,1.18,1.18,0,0,1,1.21-1.21A1.16,1.16,0,0,1,307.25,519.67Zm-2.16,13.65V522.68H307v10.64Z" transform="translate(-227.47 -358.85)" fill="#24b5ff"/><path d="M310.24,525.55c0-1.11,0-2-.09-2.87h1.71l.11,1.75h0a3.93,3.93,0,0,1,3.52-2c1.46,0,3.75.88,3.75,4.54v6.35h-1.93v-6.14c0-1.72-.65-3.16-2.46-3.16a2.77,2.77,0,0,0-2.6,2,3,3,0,0,0-.14.89v6.42h-1.92Z" transform="translate(-227.47 -358.85)" fill="#24b5ff"/><path d="M331.63,522.68c-.05.75-.09,1.61-.09,2.91v6.18c0,2.46-.5,3.94-1.52,4.87a5.7,5.7,0,0,1-3.88,1.28,6.94,6.94,0,0,1-3.55-.88l.49-1.49a6,6,0,0,0,3.13.85c2,0,3.43-1,3.43-3.73v-1.18h-.05a3.77,3.77,0,0,1-3.38,1.79c-2.65,0-4.54-2.26-4.54-5.2,0-3.61,2.35-5.65,4.81-5.65a3.54,3.54,0,0,1,3.32,1.84h0l.08-1.59Zm-2,4.18a2.89,2.89,0,0,0-.11-.86,2.8,2.8,0,0,0-2.72-2.06c-1.84,0-3.17,1.56-3.17,4,0,2.08,1.08,3.83,3.15,3.83a2.83,2.83,0,0,0,2.69-2,3.22,3.22,0,0,0,.16-1Z" transform="translate(-227.47 -358.85)" fill="#24b5ff"/><path d="M345.31,533.32l-.17-1.35h-.06a4,4,0,0,1-3.25,1.59,3,3,0,0,1-3.25-3.06c0-2.57,2.28-4,6.39-4v-.22a2.19,2.19,0,0,0-2.42-2.46,5.22,5.22,0,0,0-2.77.79l-.44-1.28a6.67,6.67,0,0,1,3.51-.94c3.25,0,4,2.23,4,4.36v4a18,18,0,0,0,.16,2.55Zm-.3-5.44c-2.1,0-4.49.33-4.49,2.39a1.7,1.7,0,0,0,1.8,1.85,2.67,2.67,0,0,0,2.6-1.78,2.2,2.2,0,0,0,.09-.61Z" transform="translate(-227.47 -358.85)" fill="#24b5ff"/><path d="M350,525.55c0-1.11,0-2-.09-2.87h1.71l.11,1.75h.06a3.92,3.92,0,0,1,3.51-2c1.47,0,3.75.88,3.75,4.54v6.35h-1.92v-6.14c0-1.72-.65-3.16-2.46-3.16a2.79,2.79,0,0,0-2.61,2,3,3,0,0,0-.13.89v6.42H350Z" transform="translate(-227.47 -358.85)" fill="#24b5ff"/><path d="M371.41,517.69v12.88c0,.95,0,2,.09,2.75h-1.73l-.09-1.84h-.06a3.89,3.89,0,0,1-3.61,2.08c-2.57,0-4.56-2.18-4.56-5.41,0-3.56,2.19-5.72,4.78-5.72a3.56,3.56,0,0,1,3.21,1.62h0v-6.36ZM369.48,527a3.8,3.8,0,0,0-.08-.82,2.86,2.86,0,0,0-2.8-2.23c-2,0-3.2,1.76-3.2,4.1,0,2.16,1.07,4,3.16,4a2.92,2.92,0,0,0,2.83-2.32,3.15,3.15,0,0,0,.09-.83Z" transform="translate(-227.47 -358.85)" fill="#24b5ff"/><path d="M387,526.36h-5.75v5.36h6.43v1.6h-8.36V518.49h8v1.59h-6.09v4.7H387Z" transform="translate(-227.47 -358.85)" fill="#24b5ff"/><path d="M399.21,517.69v12.88c0,.95,0,2,.09,2.75h-1.72l-.1-1.84h-.05a3.89,3.89,0,0,1-3.61,2.08c-2.58,0-4.57-2.18-4.57-5.41,0-3.56,2.2-5.72,4.79-5.72a3.56,3.56,0,0,1,3.21,1.62h0v-6.36ZM397.29,527a3.8,3.8,0,0,0-.08-.82,2.87,2.87,0,0,0-2.8-2.23c-2,0-3.2,1.76-3.2,4.1,0,2.16,1.07,4,3.16,4a2.93,2.93,0,0,0,2.83-2.32,3.64,3.64,0,0,0,.09-.83Z" transform="translate(-227.47 -358.85)" fill="#24b5ff"/><path d="M411.62,522.68c-.05.75-.09,1.61-.09,2.91v6.18c0,2.46-.5,3.94-1.52,4.87a5.7,5.7,0,0,1-3.88,1.28,6.94,6.94,0,0,1-3.55-.88l.49-1.49a6,6,0,0,0,3.13.85c2,0,3.43-1,3.43-3.73v-1.18h-.05a3.77,3.77,0,0,1-3.38,1.79c-2.65,0-4.54-2.26-4.54-5.2,0-3.61,2.35-5.65,4.81-5.65a3.54,3.54,0,0,1,3.32,1.84h0l.08-1.59Zm-2,4.18a2.89,2.89,0,0,0-.11-.86,2.8,2.8,0,0,0-2.72-2.06c-1.84,0-3.17,1.56-3.17,4,0,2.08,1.08,3.83,3.15,3.83a2.85,2.85,0,0,0,2.7-2,3.52,3.52,0,0,0,.15-1Z" transform="translate(-227.47 -358.85)" fill="#24b5ff"/><path d="M415.82,528.35a3.4,3.4,0,0,0,3.64,3.69,7.33,7.33,0,0,0,3-.54l.34,1.37a8.58,8.58,0,0,1-3.55.68c-3.27,0-5.24-2.18-5.24-5.37s1.9-5.75,5-5.75c3.47,0,4.38,3.05,4.38,5a5.07,5.07,0,0,1-.07.91Zm5.66-1.4c0-1.22-.5-3.13-2.67-3.13-2,0-2.81,1.79-3,3.13Z" transform="translate(-227.47 -358.85)" fill="#24b5ff"/><path d="M430.48,518.69a25.66,25.66,0,0,1,4.07-.32c2.75,0,4.71.65,6,1.86a6.77,6.77,0,0,1,2.1,5.31,7.91,7.91,0,0,1-2.13,5.77c-1.4,1.38-3.7,2.14-6.57,2.14a31.07,31.07,0,0,1-3.48-.17Zm1.92,13.12a13.56,13.56,0,0,0,1.93.09c4.1,0,6.31-2.28,6.31-6.29,0-3.5-1.95-5.71-6-5.71a11.87,11.87,0,0,0-2.25.19Z" transform="translate(-227.47 -358.85)" fill="#24b5ff"/><path d="M446.24,528.35a3.4,3.4,0,0,0,3.65,3.69,7.24,7.24,0,0,0,2.94-.54l.34,1.37a8.54,8.54,0,0,1-3.55.68c-3.27,0-5.23-2.18-5.23-5.37s1.9-5.75,5-5.75c3.47,0,4.38,3.05,4.38,5a5.25,5.25,0,0,1-.06.91Zm5.67-1.4c0-1.22-.5-3.13-2.67-3.13-2,0-2.82,1.79-3,3.13Z" transform="translate(-227.47 -358.85)" fill="#24b5ff"/><path d="M458.51,519.61v3.07h2.78v1.46h-2.78v5.74c0,1.32.38,2.07,1.46,2.07a3.77,3.77,0,0,0,1.12-.14l.09,1.47a4.91,4.91,0,0,1-1.73.27,2.73,2.73,0,0,1-2.09-.82,4.11,4.11,0,0,1-.75-2.78v-5.81H455v-1.46h1.65v-2.57Z" transform="translate(-227.47 -358.85)" fill="#24b5ff"/><path d="M464.42,528.35a3.39,3.39,0,0,0,3.64,3.69,7.24,7.24,0,0,0,2.94-.54l.34,1.37a8.54,8.54,0,0,1-3.55.68c-3.27,0-5.23-2.18-5.23-5.37s1.9-5.75,5-5.75c3.48,0,4.38,3.05,4.38,5a5.25,5.25,0,0,1-.06.91Zm5.66-1.4c0-1.22-.5-3.13-2.67-3.13-2,0-2.82,1.79-3,3.13Z" transform="translate(-227.47 -358.85)" fill="#24b5ff"/><path d="M481.94,532.93a7.31,7.31,0,0,1-3.05.62,5.07,5.07,0,0,1-5.31-5.44,5.42,5.42,0,0,1,5.72-5.67A6.41,6.41,0,0,1,482,523l-.43,1.49a4.77,4.77,0,0,0-2.27-.51,3.69,3.69,0,0,0-3.75,4,3.65,3.65,0,0,0,3.71,4,5.77,5.77,0,0,0,2.37-.51Z" transform="translate(-227.47 -358.85)" fill="#24b5ff"/><path d="M486.82,519.61v3.07h2.78v1.46h-2.78v5.74c0,1.32.38,2.07,1.46,2.07a3.77,3.77,0,0,0,1.12-.14l.09,1.47a4.83,4.83,0,0,1-1.73.27,2.73,2.73,0,0,1-2.09-.82,4.11,4.11,0,0,1-.75-2.78v-5.81h-1.64v-1.46h1.64v-2.57Z" transform="translate(-227.47 -358.85)" fill="#24b5ff"/><path d="M493.94,519.67a1.2,1.2,0,1,1-2.4,0,1.18,1.18,0,0,1,1.21-1.21A1.16,1.16,0,0,1,493.94,519.67Zm-2.16,13.65V522.68h1.92v10.64Z" transform="translate(-227.47 -358.85)" fill="#24b5ff"/><path d="M506.56,527.89c0,3.94-2.74,5.67-5.29,5.67-2.89,0-5.12-2.1-5.12-5.48,0-3.56,2.34-5.65,5.28-5.65S506.56,524.65,506.56,527.89Zm-8.44.13c0,2.33,1.34,4.09,3.23,4.09s3.24-1.73,3.24-4.15c0-1.8-.91-4.08-3.21-4.08S498.12,526,498.12,528Z" transform="translate(-227.47 -358.85)" fill="#24b5ff"/><path d="M509,525.55c0-1.11,0-2-.08-2.87h1.71l.1,1.75h.06a3.93,3.93,0,0,1,3.52-2c1.46,0,3.75.88,3.75,4.54v6.35h-1.93v-6.14c0-1.72-.65-3.16-2.46-3.16a2.79,2.79,0,0,0-2.61,2,3,3,0,0,0-.13.89v6.42H509Z" transform="translate(-227.47 -358.85)" fill="#24b5ff"/></svg>