<svg id="Layer_1" data-name="Layer 1" xmlns="http://www.w3.org/2000/svg" viewBox="0 0 512.5 62.5"><path d="M68.82,299.53V262h56.25a6.18,6.18,0,0,0,6.25-6.25v-6.25H68.82V237h75v25a11.93,11.93,0,0,1-3.71,8.89,12.19,12.19,0,0,1-8.79,3.61h-50v25Z" transform="translate(-68.82 -237.03)" fill="#24b5ff"/><path d="M193.82,299.53V237h12.5v62.5Z" transform="translate(-68.82 -237.03)" fill="#24b5ff"/><path d="M256.32,299.53V287l18.75-18.75L268.82,262l-12.5-12.5V237h12.5v6.25l25,25-25,25v6.25Zm62.5,0v-6.25l-25-25,25-25V237h12.5v12.5L318.82,262h-.1l-6.15,6.25L331.32,287v12.5Z" transform="translate(-68.82 -237.03)" fill="#24b5ff"/><path d="M393.82,249.53a12.07,12.07,0,0,1-8.89-3.61,12.28,12.28,0,0,1-3.61-8.89h75a11.93,11.93,0,0,1-3.71,8.89,12.19,12.19,0,0,1-8.79,3.61Zm0,25a12.07,12.07,0,0,1-8.89-3.61,12.28,12.28,0,0,1-3.61-8.89h75a11.93,11.93,0,0,1-3.71,8.89,12.19,12.19,0,0,1-8.79,3.61Zm0,25a12.07,12.07,0,0,1-8.89-3.61,12.28,12.28,0,0,1-3.61-8.89h75a11.93,11.93,0,0,1-3.71,8.89,12.19,12.19,0,0,1-8.79,3.61Z" transform="translate(-68.82 -237.03)" fill="#24b5ff"/><path d="M506.32,299.53V237h12.5v50h62.5a11.93,11.93,0,0,1-3.71,8.89,12.19,12.19,0,0,1-8.79,3.61Z" transform="translate(-68.82 -237.03)" fill="#24b5ff"/></svg>